# xmcd CD database file
#
# Track frame offsets:
#	150
#	22352
#	53097
#	69713
#	89619
#	103520
#	124331
#	132001
#	147224
#	165126
#	182776
#	198621
#
# Disc length: 3170 seconds
#
# Revision: 0
# Processed by: cddbd v1.5PL3 Copyright (c) Steve Scherf et al.
# Submitted via: CDex 1.51
#
DISCID=ae0c600c
DTITLE=Two Dollar Motel - Kansas
DYEAR=2004
DGENRE=New Age
TTITLE0=The car is waiting. . .
TTITLE1=Last door to your left
TTITLE2=Lost in a montreal subway
TTITLE3=Like a plastic bag
TTITLE4=Waiting for it to happen
TTITLE5=Painkillers
TTITLE6=Pause parano
TTITLE7=Lost in a tokyo subway
TTITLE8=The want you to walk
TTITLE9=La deuxième fois. . .
TTITLE10=Stems
TTITLE11=The dust was blown away
EXTD=YEAR: 2004
EXTT0=
EXTT1=
EXTT2=
EXTT3=
EXTT4=
EXTT5=
EXTT6=
EXTT7=
EXTT8=
EXTT9=
EXTT10=
EXTT11=
PLAYORDER=
